<svg width="58" height="47" viewBox="0 0 58 47" fill="none" xmlns="http://www.w3.org/2000/svg">
<path d="M17.697 16.1748C13.7721 15.3338 10.2211 18.9783 8.93612 20.9057C7.92007 22.1672 7.46146 24.2348 7.35916 25.1109C6.79847 29.4563 8.41047 32.2948 9.28656 33.1709C11.214 33.8718 18.3979 32.9957 19.9748 29.6666C21.2364 27.0033 23.4208 26.4542 24.3553 26.5126C26.7382 26.0921 28.0349 27.2719 28.3853 27.9144C29.5067 29.4563 32.2401 30.5427 33.4666 30.8931C36.1299 31.4538 38.5479 29.4914 39.424 28.44C40.4052 27.1785 41.3514 26.6295 41.7018 26.5126C44.0848 25.8118 45.3814 27.1551 45.7319 27.9144C46.7832 29.8418 49.061 32.2948 53.6166 32.4701C57.2612 32.6102 58.0555 28.2064 57.9971 25.987C55.8945 17.7518 51.3388 18.1022 46.7832 20.2048C43.1386 21.8869 39.5408 19.9712 38.1975 18.8031C34.553 15.9996 30.6047 17.9854 29.0862 19.3287C27.5092 20.38 23.8296 21.8519 21.727 19.3287C19.6244 16.8056 18.1643 16.1748 17.697 16.1748Z" fill="black"/>
<path d="M11.7396 21.9569C12.0199 21.5364 13.8422 20.4968 14.7183 20.0295C15.1388 24.9356 11.5059 26.7462 9.63696 27.0383C9.49678 26.6177 9.69536 25.5781 9.81218 25.1109C12.6157 25.1109 12.2652 23.0082 11.7396 21.9569Z" fill="white"/>
<path d="M7.00873 13.1961C10.3729 13.6166 12.0316 15.9412 12.4405 17.0509C13.1414 13.0209 7.70956 11.0935 7.70956 11.2687C7.70956 11.4089 7.47593 10.8599 7.35912 10.5678C7.00869 9.34131 5.95742 9.51652 4.90612 10.2174C3.85481 10.9183 3.85481 12.6704 4.7309 13.5465C5.43177 14.2474 6.54148 13.6049 7.00873 13.1961Z" fill="black"/>
<path d="M4.43747 18.0656C7.39754 16.4125 10.1106 17.3037 11.0971 17.9559C9.27581 14.2932 3.75729 15.9562 3.86104 16.0974C3.94403 16.2104 3.43069 15.9063 3.16364 15.7401C2.15501 14.9592 1.41158 15.7228 0.979361 16.9101C0.547138 18.0974 1.5846 19.5094 2.80935 19.6967C3.78914 19.8465 4.30301 18.6717 4.43747 18.0656Z" fill="black"/>
<path d="M29.4367 2.50781C29.1563 2.78816 29.3198 3.09187 29.4367 3.20868C31.3991 4.61042 33.8755 3.79274 34.8684 3.20868C35.2889 2.92833 35.0436 2.62462 34.8684 2.50781C32.6256 0.825719 30.3127 1.80694 29.4367 2.50781Z" fill="black"/>
<path d="M45.2062 1.10605C42.9634 1.80692 42.4027 3.50069 42.4027 4.25997C43.3839 2.71806 45.031 2.09895 45.7318 1.98214C46.4327 2.58496 47.192 2.35013 47.484 2.15736C48.4652 1.03596 47.3088 0.288369 46.6079 0.0547456C45.2062 -0.225603 45.0894 0.638805 45.2062 1.10605Z" fill="black"/>
<path d="M47.8205 3.48166C45.5323 2.94762 44.1897 4.12267 43.8044 4.77695C45.4323 3.94613 47.1657 4.24835 47.829 4.50331C48.127 5.37839 48.9005 5.56129 49.2499 5.54335C50.6645 5.0749 50.0473 3.84391 49.5619 3.28698C48.4962 2.33416 47.957 3.01976 47.8205 3.48166Z" fill="black"/>
<path d="M40.6505 4.25999C49.6217 5.38138 49.5282 12.5536 48.3601 15.9996C44.295 16.5603 40.8257 14.5978 39.5992 13.5465C38.7582 12.1448 36.9126 11.3271 36.0949 11.0935C31.329 10.2524 28.8525 11.6775 28.2101 12.4952C26.8083 13.897 24.7057 14.2474 23.8296 14.2474C19.2039 13.8269 19.2155 10.1006 19.7996 8.29C21.2013 4.78565 25.2898 5.3113 27.1587 6.01217C31.2238 8.25496 35.5108 6.82985 37.1462 5.83695C38.2675 4.43521 39.9496 4.20159 40.6505 4.25999Z" fill="black"/>
<path d="M46.9584 9.86696C47.0986 10.0071 47.1336 10.8599 47.1336 11.2687C43.4891 10.708 42.4611 7.76435 42.4027 6.36261C43.1036 6.36261 44.5638 7.2971 45.2062 7.76435C44.9259 9.86696 46.2575 10.0422 46.9584 9.86696Z" fill="white"/>
<path d="M29.4367 45.1384C29.1563 45.4187 29.3198 45.7224 29.4367 45.8392C31.3991 47.241 33.8755 46.4233 34.8684 45.8392C35.2889 45.5589 35.0436 45.2552 34.8684 45.1384C32.6256 43.4563 30.3127 44.4375 29.4367 45.1384Z" fill="black"/>
<path d="M45.2062 31.2983C42.9634 31.9991 42.4027 33.6929 42.4027 34.4522C43.3839 32.9103 45.031 32.2912 45.7318 32.1743C46.4327 32.7772 47.192 32.5423 47.484 32.3496C48.4652 31.2282 47.3088 30.4806 46.6079 30.2469C45.2062 29.9666 45.0894 30.831 45.2062 31.2983Z" fill="black"/>
<path d="M47.8205 33.6739C45.5323 33.1398 44.1897 34.3149 43.8044 34.9691C45.4323 34.1383 47.1657 34.4405 47.829 34.6955C48.127 35.5706 48.9005 35.7535 49.2499 35.7355C50.6645 35.2671 50.0473 34.0361 49.5619 33.4792C48.4962 32.5264 47.957 33.212 47.8205 33.6739Z" fill="black"/>
<path d="M40.6505 34.4522C49.6217 35.5736 49.5282 42.7458 48.3601 46.1918C44.295 46.7525 40.8257 44.79 39.5992 43.7387C38.7582 42.337 36.9126 41.5193 36.0949 41.2857C31.329 40.4446 28.8525 41.8697 28.2101 42.6874C26.8083 44.0892 24.7057 44.4396 23.8296 44.4396C19.2039 44.0191 19.2155 40.2928 19.7996 38.4822C21.2013 34.9778 25.2898 35.5035 27.1587 36.2044C31.2238 38.4472 35.5108 37.0221 37.1462 36.0292C38.2675 34.6274 39.9496 34.3938 40.6505 34.4522Z" fill="black"/>
<path d="M46.9584 40.0592C47.0986 40.1993 47.1336 41.0521 47.1336 41.4609C43.4891 40.9002 42.4611 37.9566 42.4027 36.5548C43.1036 36.5548 44.5638 37.4893 45.2062 37.9566C44.9259 40.0592 46.2575 40.2344 46.9584 40.0592Z" fill="white"/>
</svg>